HIERARCHY
ROOT hips
{
  OFFSET 0 10.680822821525009 1.3929502295107734
  CHANNELS 6 Xposition Yposition Zposition Yrotation Xrotation Zrotation
  JOINT spine
  {
    OFFSET -7.042017322922631e-31 0.6058489940359625 0
    CHANNELS 3 Yrotation Xrotation Zrotation
    JOINT chest
    {
      OFFSET 0 1.2699794144455032 0
      CHANNELS 3 Yrotation Xrotation Zrotation
      JOINT upperChest
      {
        OFFSET 0 1.217799211677689 0
        CHANNELS 3 Yrotation Xrotation Zrotation
        JOINT neck
        {
          OFFSET 0 1.5248826104153006 0
          CHANNELS 3 Yrotation Xrotation Zrotation
          JOINT head
          {
            OFFSET 0 0.8197772727844447 0
            CHANNELS 3 Yrotation Xrotation Zrotation
            JOINT leftEye
            {
              OFFSET 0.2793952361220866 0.6769952096623495 0.1830357412467788
              CHANNELS 3 Yrotation Xrotation Zrotation
              End Site
              {
                OFFSET 0.2793952361220866 0.6769952096623495 0.1830357412467788
              }
            }
            JOINT rightEye
            {
              OFFSET -0.27939522230689573 0.676995205357064 0.18303631459760622
              CHANNELS 3 Yrotation Xrotation Zrotation
              End Site
              {
                OFFSET -0.27939522230689573 0.676995205357064 0.18303631459760622
              }
            }
          }
        }
        JOINT leftShoulder
        {
          OFFSET 0.41486978509200423 1.1670505408695453 0
          CHANNELS 3 Yrotation Xrotation Zrotation
          JOINT leftUpperArm
          {
            OFFSET 0.9737926108153417 0 0
            CHANNELS 3 Yrotation Xrotation Zrotation
            JOINT leftLowerArm
            {
              OFFSET 2.5269332222665284 0 0
              CHANNELS 3 Yrotation Xrotation Zrotation
              JOINT leftHand
              {
                OFFSET 2.4263782738425914 0 0
                CHANNELS 3 Yrotation Xrotation Zrotation
                JOINT leftIndexProximal
                {
                  OFFSET 0.724320348022514 0.08170607082582437 0.20360061616140124
                  CHANNELS 3 Yrotation Xrotation Zrotation
                  JOINT leftIndexIntermediate
                  {
                    OFFSET 0.36548960630744587 -0.010566596513783999 -0.01414783573280308
                    CHANNELS 3 Yrotation Xrotation Zrotation
                    JOINT leftIndexDistal
                    {
                      OFFSET 0.22502819650693362 -0.007863819831430696 -0.007567681939621526
                      CHANNELS 3 Yrotation Xrotation Zrotation
                      End Site
                      {
                        OFFSET 0.22502819650693362 -0.007863819831430696 -0.007567681939621526
                      }
                    }
                  }
                }
                JOINT leftLittleProximal
                {
                  OFFSET 0.6720322998298205 0.08170601055037707 -0.3230036039466837
                  CHANNELS 3 Yrotation Xrotation Zrotation
                  JOINT leftLittleIntermediate
                  {
                    OFFSET 0.34583592281688713 5.476543019078406e-8 1.3869203337180114e-7
                    CHANNELS 3 Yrotation Xrotation Zrotation
                    JOINT leftLittleDistal
                    {
                      OFFSET 0.19925728062053938 0.003098047439490381 0.0038303983709246925
                      CHANNELS 3 Yrotation Xrotation Zrotation
                      End Site
                      {
                        OFFSET 0.19925728062053938 0.003098047439490381 0.0038303983709246925
                      }
                    }
                  }
                }
                JOINT leftMiddleProximal
                {
                  OFFSET 0.7300436596551069 0.0817073395107144 0.022661722987926763
                  CHANNELS 3 Yrotation Xrotation Zrotation
                  JOINT leftMiddleIntermediate
                  {
                    OFFSET 0.40758254347686607 -0.0000012383587111308714 2.408460318820138e-7
                    CHANNELS 3 Yrotation Xrotation Zrotation
                    JOINT leftMiddleDistal
                    {
                      OFFSET 0.2514490105498507 0.0000013869132886590307 9.738618134136345e-8
                      CHANNELS 3 Yrotation Xrotation Zrotation
                      End Site
                      {
                        OFFSET 0.2514490105498507 0.0000013869132886590307 9.738618134136345e-8
                      }
                    }
                  }
                }
                JOINT leftRingProximal
                {
                  OFFSET 0.7217261161191838 0.08170601902187746 -0.15043395722184966
                  CHANNELS 3 Yrotation Xrotation Zrotation
                  JOINT leftRingIntermediate
                  {
                    OFFSET 0.37808807487521556 0.0000013754022405443322 2.2046919317952884e-7
                    CHANNELS 3 Yrotation Xrotation Zrotation
                    JOINT leftRingDistal
                    {
                      OFFSET 0.21812105442344254 -0.002713483731960231 -0.004991354517454624
                      CHANNELS 3 Yrotation Xrotation Zrotation
                      End Site
                      {
                        OFFSET 0.21812105442344254 -0.002713483731960231 -0.004991354517454624
                      }
                    }
                  }
                }
                JOINT leftThumbProximal
                {
                  OFFSET 0.10793587079521427 -0.1652791240518252 -0.07775251827190094
                  CHANNELS 3 Yrotation Xrotation Zrotation
                  JOINT leftThumbIntermediate
                  {
                    OFFSET 0.40355819082296684 -0.017484006740276614 0.3177776014416309
                    CHANNELS 3 Yrotation Xrotation Zrotation
                    JOINT leftThumbDistal
                    {
                      OFFSET 0.2318764658022603 -0.018510186824293617 0.21396001800186287
                      CHANNELS 3 Yrotation Xrotation Zrotation
                      End Site
                      {
                        OFFSET 0.2318764658022603 -0.018510186824293617 0.21396001800186287
                      }
                    }
                  }
                }
              }
            }
          }
        }
        JOINT rightShoulder
        {
          OFFSET -0.4148697850920044 1.1670505408695453 0
          CHANNELS 3 Yrotation Xrotation Zrotation
          JOINT rightUpperArm
          {
            OFFSET -0.9737926108153414 0 0
            CHANNELS 3 Yrotation Xrotation Zrotation
            JOINT rightLowerArm
            {
              OFFSET -2.5269332222665293 0 0
              CHANNELS 3 Yrotation Xrotation Zrotation
              JOINT rightHand
              {
                OFFSET -2.42637827384259 0 0
                CHANNELS 3 Yrotation Xrotation Zrotation
                JOINT rightIndexProximal
                {
                  OFFSET -0.724320348022514 0.08170607082582437 0.20360061616140124
                  CHANNELS 3 Yrotation Xrotation Zrotation
                  JOINT rightIndexIntermediate
                  {
                    OFFSET -0.36548960630744587 -0.010566596513783999 -0.01414783573280308
                    CHANNELS 3 Yrotation Xrotation Zrotation
                    JOINT rightIndexDistal
                    {
                      OFFSET -0.22502819650693362 -0.007863819831430696 -0.007567681939621526
                      CHANNELS 3 Yrotation Xrotation Zrotation
                      End Site
                      {
                        OFFSET -0.22502819650693362 -0.007863819831430696 -0.007567681939621526
                      }
                    }
                  }
                }
                JOINT rightLittleProximal
                {
                  OFFSET -0.6720322998298205 0.08170601055037707 -0.3230036039466837
                  CHANNELS 3 Yrotation Xrotation Zrotation
                  JOINT rightLittleIntermediate
                  {
                    OFFSET -0.34583592281688713 5.476543019078406e-8 1.3869203337180114e-7
                    CHANNELS 3 Yrotation Xrotation Zrotation
                    JOINT rightLittleDistal
                    {
                      OFFSET -0.19925728062053938 0.003098047439490381 0.0038303983709246925
                      CHANNELS 3 Yrotation Xrotation Zrotation
                      End Site
                      {
                        OFFSET -0.19925728062053938 0.003098047439490381 0.0038303983709246925
                      }
                    }
                  }
                }
                JOINT rightMiddleProximal
                {
                  OFFSET -0.7300436596551069 0.0817073395107144 0.022661722987926763
                  CHANNELS 3 Yrotation Xrotation Zrotation
                  JOINT rightMiddleIntermediate
                  {
                    OFFSET -0.40758254347686607 -0.0000012383587111308714 2.408460318820138e-7
                    CHANNELS 3 Yrotation Xrotation Zrotation
                    JOINT rightMiddleDistal
                    {
                      OFFSET -0.2514490105498507 0.0000013869132886590307 9.738618134136345e-8
                      CHANNELS 3 Yrotation Xrotation Zrotation
                      End Site
                      {
                        OFFSET -0.2514490105498507 0.0000013869132886590307 9.738618134136345e-8
                      }
                    }
                  }
                }
                JOINT rightRingProximal
                {
                  OFFSET -0.7217261161191838 0.08170601902187746 -0.15043395722184966
                  CHANNELS 3 Yrotation Xrotation Zrotation
                  JOINT rightRingIntermediate
                  {
                    OFFSET -0.37808807487521556 0.0000013754022405443322 2.2046919317952884e-7
                    CHANNELS 3 Yrotation Xrotation Zrotation
                    JOINT rightRingDistal
                    {
                      OFFSET -0.21812105442344254 -0.002713483731960231 -0.004991354517454624
                      CHANNELS 3 Yrotation Xrotation Zrotation
                      End Site
                      {
                        OFFSET -0.21812105442344254 -0.002713483731960231 -0.004991354517454624
                      }
                    }
                  }
                }
                JOINT rightThumbProximal
                {
                  OFFSET -0.10793587079521427 -0.1652791240518252 -0.07775251827190094
                  CHANNELS 3 Yrotation Xrotation Zrotation
                  JOINT rightThumbIntermediate
                  {
                    OFFSET -0.40355819082296684 -0.017484006740276614 0.3177776014416309
                    CHANNELS 3 Yrotation Xrotation Zrotation
                    JOINT rightThumbDistal
                    {
                      OFFSET -0.2318764658022603 -0.018510186824293617 0.21396001800186287
                      CHANNELS 3 Yrotation Xrotation Zrotation
                      End Site
                      {
                        OFFSET -0.2318764658022603 -0.018510186824293617 0.21396001800186287
                      }
                    }
                  }
                }
              }
            }
          }
        }
      }
    }
  }
  JOINT leftUpperLeg
  {
    OFFSET 0.8486251390888677 -0.4421577294694363 0
    CHANNELS 3 Yrotation Xrotation Zrotation
    JOINT leftLowerLeg
    {
      OFFSET 0 -4.10147812638609 0
      CHANNELS 3 Yrotation Xrotation Zrotation
      JOINT leftFoot
      {
        OFFSET -0.0002543926476658853 -4.77292286812444 0.007402811231737388
        CHANNELS 3 Yrotation Xrotation Zrotation
        JOINT leftToes
        {
          OFFSET 0 -0.7027875951174846 1.2062924140498823
          CHANNELS 3 Yrotation Xrotation Zrotation
          End Site
          {
            OFFSET 0 -0.7027875951174846 1.2062924140498823
          }
        }
      }
    }
  }
  JOINT rightUpperLeg
  {
    OFFSET -0.8486251390888677 -0.4421577294694363 0
    CHANNELS 3 Yrotation Xrotation Zrotation
    JOINT rightLowerLeg
    {
      OFFSET 0 -4.10147812638609 0
      CHANNELS 3 Yrotation Xrotation Zrotation
      JOINT rightFoot
      {
        OFFSET 0.0002543926476658853 -4.77292286812444 0.007402811231737388
        CHANNELS 3 Yrotation Xrotation Zrotation
        JOINT rightToes
        {
          OFFSET 0 -0.7027875951174846 1.2062924140498823
          CHANNELS 3 Yrotation Xrotation Zrotation
          End Site
          {
            OFFSET 0 -0.7027875951174846 1.2062924140498823
          }
        }
      }
    }
  }
}
MOTION
Frames: 4
Frame Time: 0.03333333333333333
0.3279336392879486 -0.1182703694376066 1.176104187965393 -3.0759096253463647 0.24286712637667424 -7.616816892753286 -5.059797060151531 3.5272694470460455 1.1677675309107045 -1.4497982757759844 5.082338932449474 1.0267267350849798 0 0 0 -4.586090247113131 1.2704330538688013 9.0326380294255 -12.950667445500168 -6.204727204372215 3.6631065986460114 0 0 0 0 0 0 -24.200104323222032 3.2543597126725743 1.494838921488092 -56.20195518906623 0.0240082740501915 -4.742415318621886 -98.00984076739027 0.843289816374421 0.7329300182810824 -17.361651830412622 11.334849820676926 -13.461285008386142 2.7454800697527957 8.199813063714213 -78.86497660766628 5.085113403400803 4.443851149233746 -82.29323686016956 5.1065646968441465 5.636129755539938 -95.65437538387748 15.451095906509362 3.0404911175586395 -83.9561091309181 4.181290056493735 2.1589992275272554 -54.60562753786597 5.064962340954658 4.308982976868792 -80.77019894320081 6.9985918214390495 2.775707806823063 -73.91139911096701 4.906601318208258 6.628404478795357 -107.00916864868111 4.876620938751911 3.5365229324472947 -71.88559506134777 6.723510391170005 0.6117666951564618 -79.63291084718117 5.1209480421795615 5.460889078717504 -93.68711145291923 4.425942609849757 2.537133372937347 -59.63147076641626 -8.323180009783382 -0.16940850834536988 8.657257886986272 43.80366329905966 21.115703693592238 -21.687711309555176 49.81178673063282 -10.99322824624553 15.085213018564891 7.9212508241036375 -22.58419762783182 -13.218851198469272 17.297106189472075 -20.537062732738576 -9.861830653164185 29.906650689991864 0.09854277625540062 -0.3690007903630145 21.39695911946471 -35.76224687135909 -41.12242667874548 -0.7391131024360288 5.565555430231569 51.31152514607848 -3.8923347939586472 3.4118778824190685 82.46817624358755 -3.905755255170989 4.326171689884327 95.85206982051021 -14.14153534434446 2.7624073454345752 97.12498581491461 -3.0703250282431633 1.480077914054344 51.46545898843061 -3.1458989659570262 1.5780840979935604 53.27106138892328 -5.743100037121876 1.8559121158978473 73.34455413274509 -3.7500776939527842 5.086514949487737 107.21681562443342 -2.7128174310369015 1.0887225376055918 43.727259204526014 -6.321554333685639 0.2942327959467415 91.8889683714291 -3.916682564814861 3.6525620019181244 86.00043769499844 -2.592691298337987 0.9785101571519834 41.34847548401264 10.292621884254169 -0.8925057497974577 -8.274385603709472 -37.34106227205404 7.5793454697381435 0.9256056007748487 -33.20217959459209 -11.282704031718833 -21.267266375845335 11.103910959206148 -19.080196648247167 20.340564119053667 8.730170753813505 28.754438881694615 4.3726749146140875 0.5863617324417805 -3.5433614738199974 -2.139642380249813 -0.000006048338201325144 -2.408103210395474 4.649413905349673e-7 -11.363258783781435 -39.135956845554794 -14.448309771675497 -19.178394007499257 60.013634086244636 -18.216118476236975 -15.970676488552849 19.835179991778187 12.29973965930469 -0.000008144637304392089 3.8546026380839056 -0.000004990861986534963
0.01071216631680727 -0.07039877977696207 1.2669346332550049 -0.976175377144163 1.3457909657410692 -6.326026924272728 -5.343959323501036 1.7865191555882998 -1.2937160799117442 -1.6074422502490409 2.8885275229457847 0.4714899163664506 0 0 0 -5.06972957552496 1.757375743315162 11.571302188189838 -12.231449454831411 -2.3506196549883605 1.7602883777713492 0 0 0 0 0 0 -25.053820627714252 2.6623183077418684 -0.8118700967918945 -53.8985268091391 5.679966036534201 -3.8973680237977346 -98.75285891941068 0.8527881814581 0.7315491314439745 -15.495600606386304 4.834963879328775 -13.494725786319183 2.7455065138873316 8.199815651490788 -78.86495665519985 5.085116815311058 4.443844726623413 -82.29319050561146 5.106577941841024 5.636134474106127 -95.65434498710724 15.451108354702411 3.040492613768737 -83.95610069369849 4.181282387539065 2.159006916948574 -54.60563508911875 5.064964899506351 4.308976555415373 -80.77017164620143 6.998597336089095 2.775708875293695 -73.91139911096701 4.906605171869774 6.628412644225548 -107.00916864868111 4.8766018971457425 3.536523787849901 -71.88558480361704 6.723531565809437 0.611764560600672 -79.63290244834462 5.120948896422464 5.460894653548201 -93.68710183079122 4.425947296195438 2.537126749699124 -59.631487748725505 -8.323177475428933 -0.16940266530643847 8.657267171534365 43.80367111736988 21.115705524045644 -21.687713010434198 49.81178673063282 -10.99322737651204 15.085213018564891 1.453114812625209 -23.164417150018895 -12.431332020530032 30.37396693746011 9.316220249221157 -7.230970021474341 0.000027398045889030227 -0.000003795267049414836 -0.0000044963374309662385 23.866767078335798 -33.461286576892824 -22.00318434630187 -0.7391000218076601 5.56555328568783 51.31152514607848 -3.8923433271267274 3.4118609904488855 82.46813040746787 -3.9057689227640484 4.326172546097513 95.85207016970958 -14.141536173207804 2.762414610953316 97.12497394059027 -3.070323748994249 1.4800715086149367 51.46545151558293 -3.1459093871702013 1.578107799201724 53.271083947117866 -5.743096212418559 1.8559170276728791 73.34455413274509 -3.750065067656916 5.086517092360575 107.21682544933317 -2.7128093278142695 1.088723925238275 43.727259204526014 -6.321559849543678 0.29425512775816104 91.88897733129885 -3.916671895898125 3.6525791121471225 86.00046609680442 -2.5926763704166125 0.9785036461784463 41.34848768925873 10.29262944548436 -0.8925027612271189 -8.274392010168556 -37.341047785727525 7.57933857934875 0.9255814875585611 -33.20218150153513 -11.28271622010577 -21.267275392587994 13.895595396802248 -20.709312297821725 14.693588949830476 4.8504713557519725 34.35167755535971 2.9515677967766956 0.6555795419682431 -5.751200469752314 -7.45152619264221 -0.000003218011221819246 -2.40324586666074 -2.015468464339393e-7 -7.052551648342601 -24.17769525090801 -14.208475415415403 -8.743233367557206 34.75109394976916 -6.100305774528626 -9.37139466742572 24.235863377446734 15.832579695761474 -0.00002336569419580184 -0.9575882224522733 0.000002256267366724289
-0.2927325367927551 -0.15318629350987223 1.3426990509033203 1.3908446260378762 1.9842824928836165 -5.336977990927145 -5.607777785672242 0.731476621122029 -2.568263898565687 -1.7000276369121277 1.8686302421675707 0.526921952607383 0 0 0 -5.072029035737056 1.2920048761435616 12.044951333655291 -11.158445121035026 -0.11095982747882725 0.5968068011122246 0 0 0 0 0 0 -24.93949161342363 2.122137227093664 -2.9628762512005618 -51.27828913125937 8.474191532328517 -4.495481838033285 -101.12180537053258 0.8829329978407854 0.7262699541666593 -14.436279850732491 1.3049423354697747 -14.535701752087958 2.7454742038082705 8.199827727781685 -78.8649859175579 5.085104447136209 4.443839588535187 -82.2932185799411 5.106595886674629 5.636124179052673 -95.65436547703096 15.451085106470057 3.040499239842053 -83.95614435022028 4.181282813592107 2.1589973051719316 -54.60562277252374 5.064976412988721 4.308985117353277 -80.77017164620143 6.9985791029268745 2.775717209364658 -73.91139911096701 4.906602174577489 6.628417371579932 -107.0091462729894 4.876611989537639 3.5365175861810223 -71.88557667354986 6.723510815145167 0.6117745930128912 -79.6329196353244 5.120956157487037 5.46090022837895 -93.68708127611812 4.425943035881185 2.5371352958129667 -59.63146141114642 -8.32317663064411 -0.16940828156075377 8.657262951285288 43.80366583310041 21.115716506766553 -21.687716064192315 49.811776925400764 -10.993231725179522 15.085217283025477 -3.799465253741586 -23.763978438072424 -12.975451319767894 34.62531923224443 28.04858780184478 -1.8332733617435346 0.0000028021600707886824 -0.0000019685176563378835 0.000007321884807327506 23.853447283550967 -9.3839743226999 -5.636121294886652 -0.7390832421490251 5.565544707512951 51.311527290916096 -3.892334988382582 3.4118590660472377 82.46814821358475 -3.905769349876324 4.326159702899824 95.8520793431222 -14.141540317524441 2.76242379969767 97.12499514474447 -3.070308824423348 1.4800854938243333 51.46545686016325 -3.1459142908305378 1.578093706591432 53.27106686521742 -5.743096720430955 1.8559138243413351 73.34456427524532 -3.7500667782845634 5.086504235123652 107.21683792654096 -2.7128148721245036 1.088708661278798 43.727239887112155 -6.321548393530695 0.2942533134652365 91.88899620511518 -3.91667146914145 3.652570557032583 86.0004473213894 -2.59270174788274 0.9785100504147123 41.34848030458383 10.29262944548436 -0.8925010534726407 -8.274388983663666 -37.341047785727525 7.579329966362162 0.925581431905778 -33.20217768764924 -11.28269880812459 -21.267261867474474 14.938528122597551 -19.484075319327864 9.06169972401967 4.904231066951377 35.754074118183794 3.3174338960105585 4.156313439986718 -9.148883905200298 -9.530278299696775 0.000004479574253722647 -3.05111639908064 -0.0000017191612289682357 -4.878277895043024 -11.586393415962538 -12.722389254979644 -8.31466907313175 12.125196037349038 -2.6633752871695644 -9.359360654048608 28.110114323869343 3.5203219554753415 -1.2443918492577077 -16.532438737192656 11.797795840309101
-0.6945276856422424 -0.4170956334146574 1.332535743713379 4.958122273251465 1.709082992900161 -6.091231385260056 -5.98044353465827 1.5635753792186888 -0.7276239705620471 -1.7572150296586004 3.1885559220837254 1.3290057703497347 0 0 0 -3.814496459418552 -0.011846569663504603 9.345268458796243 -7.352559799539835 -2.6319880765755297 0.5614810497480942 0 0 0 0 0 0 -23.561691587716528 1.9962585569018516 -3.9657775465397203 -47.4512935684779 6.27271585669821 -9.120007285344647 -103.98608784214558 0.9190407221073482 0.718224260987371 -16.15179097041565 4.72483679274071 -16.668797365081033 2.7454910551791025 8.19981737667518 -78.86496814412895 5.085114682867152 4.443848152015584 -82.29323686016956 5.106581787162595 5.636131900342747 -95.65434498710724 15.45109334723816 3.0404911175586395 -83.9561091309181 4.181281961486024 2.1589958100066817 -54.60558860864872 5.064969590184404 4.308978695899841 -80.77017164620143 6.99860285073901 2.775707806823063 -73.91138995046637 4.906595751808214 6.628417801339424 -107.00918116130926 4.876614120302964 3.536521007791433 -71.88559506134777 6.723522262474264 0.6117673355231988 -79.63286678392355 5.120953594758383 5.46090022837895 -93.68710161017319 4.425941757786901 2.537131663714576 -59.63147076641626 -8.323174096289618 -0.16940477306934046 8.65726801558417 43.80366329905966 21.115705524045644 -21.687713010434198 49.811769365127354 -10.993235204113551 15.085215603500776 -5.3935352338239015 -24.424504162616703 -14.617222752905477 15.69359605658693 31.31976079067946 -6.779205930624876 50.774873535886954 0.2720836359104032 -0.5733403997012732 12.838552577551075 19.25283541161954 -7.084611001687961 -0.73910607963966 5.56556443731536 51.31152032294174 -3.892321567547782 3.411887076782711 82.46814821358475 -3.905758244957008 4.326159702899824 95.85207969232206 -14.141532028891014 2.7624167478706014 97.12497436466838 -3.0703199112474855 1.480077380267726 51.4654419144677 -3.1459096003728257 1.5780868738107185 53.27109350961934 -5.743079296782937 1.855913397230463 73.34456067981297 -3.7500834569037806 5.086485377843295 107.21682544933317 -2.7128044232320976 1.0887353465226892 43.7272736925866 -6.321557303763059 0.29424880441370443 91.8889677314384 -3.916686212613875 3.652583389704423 86.00044708270619 -2.5926780764647877 0.978508769567458 41.34847548401264 10.292627765211016 -0.8924916074556978 -8.274386448698026 -37.34105261450292 7.5793342728554345 0.9256062466645659 -33.20218441540746 -11.282710125912237 -21.267258262744516 10.829595532286817 -19.133122959492674 6.462964963115374 12.47696473451964 35.98369847817426 8.251748782628352 12.382745418961704 -15.239943845248256 -7.882499948863749 0.000017040879287558433 -6.468678660482887 0.0000013723775254842446 -5.271737632165252 -9.215665509459615 -9.628429405776401 -8.60883124282292 16.42479257930759 -3.538613344132897 -12.341550224136249 3.573025607400031 11.272959773663663 0.0000061532522642137865 -12.191790070380156 -4.881541831994142e-7
